<mxfile host="app.diagrams.net" modified="2021-06-23T07:32:57.159Z" agent="5.0 (Macintosh; Intel Mac OS X 10_15_7) AppleWebKit/605.1.15 (KHTML, like Gecko) Version/14.1.1 Safari/605.1.15" etag="NhJV7PqL68nUcaSuIKwU" version="14.8.0" type="github">
  <diagram id="s8uIhsh0OnrpkY1VyqtV" name="Page-1">
    <mxGraphModel dx="1378" dy="795" grid="1" gridSize="10" guides="1" tooltips="1" connect="1" arrows="1" fold="1" page="1" pageScale="1" pageWidth="827" pageHeight="1169" math="0" shadow="0">
      <root>
        <mxCell id="0" />
        <mxCell id="1" parent="0" />
        <mxCell id="GuJyYLBh6VIsT4fxO7D6-1" value="" style="shape=table;startSize=0;container=1;collapsible=0;childLayout=tableLayout;perimeterSpacing=3;" parent="1" vertex="1">
          <mxGeometry x="10" y="80" width="820" height="390" as="geometry" />
        </mxCell>
        <mxCell id="GuJyYLBh6VIsT4fxO7D6-2" value="" style="shape=partialRectangle;collapsible=0;dropTarget=0;pointerEvents=0;fillColor=none;top=0;left=0;bottom=0;right=0;points=[[0,0.5],[1,0.5]];portConstraint=eastwest;" parent="GuJyYLBh6VIsT4fxO7D6-1" vertex="1">
          <mxGeometry width="820" height="67" as="geometry" />
        </mxCell>
        <mxCell id="GuJyYLBh6VIsT4fxO7D6-3" value="&lt;b&gt;&lt;font style=&quot;font-size: 18px&quot;&gt;Presentation&lt;/font&gt;&lt;/b&gt;" style="shape=partialRectangle;html=1;whiteSpace=wrap;connectable=0;overflow=hidden;fillColor=#0050ef;top=0;left=0;bottom=0;right=0;strokeColor=#001DBC;fontColor=#ffffff;strokeWidth=3;perimeterSpacing=3;" parent="GuJyYLBh6VIsT4fxO7D6-2" vertex="1">
          <mxGeometry width="220" height="67" as="geometry" />
        </mxCell>
        <mxCell id="GuJyYLBh6VIsT4fxO7D6-4" value="&lt;b&gt;&lt;font style=&quot;font-size: 18px&quot;&gt;Diagrams&lt;/font&gt;&lt;/b&gt;" style="shape=partialRectangle;html=1;whiteSpace=wrap;connectable=0;overflow=hidden;fillColor=#1ba1e2;top=0;left=0;bottom=0;right=0;strokeColor=#006EAF;fontColor=#ffffff;strokeWidth=3;" parent="GuJyYLBh6VIsT4fxO7D6-2" vertex="1">
          <mxGeometry x="220" width="220" height="67" as="geometry" />
        </mxCell>
        <mxCell id="GuJyYLBh6VIsT4fxO7D6-5" value="&lt;b&gt;&lt;font style=&quot;font-size: 18px&quot;&gt;Data cleaning, feature engineering&lt;/font&gt;&lt;/b&gt;" style="shape=partialRectangle;html=1;whiteSpace=wrap;connectable=0;overflow=hidden;fillColor=#60a917;top=0;left=0;bottom=0;right=0;strokeColor=#2D7600;fontColor=#ffffff;" parent="GuJyYLBh6VIsT4fxO7D6-2" vertex="1">
          <mxGeometry x="440" width="150" height="67" as="geometry" />
        </mxCell>
        <mxCell id="GuJyYLBh6VIsT4fxO7D6-6" value="&lt;b&gt;&lt;font style=&quot;font-size: 18px&quot;&gt;Model building&lt;/font&gt;&lt;/b&gt;" style="shape=partialRectangle;html=1;whiteSpace=wrap;connectable=0;overflow=hidden;fillColor=#008a00;top=0;left=0;bottom=0;right=0;fontColor=#ffffff;perimeterSpacing=3;strokeWidth=3;" parent="GuJyYLBh6VIsT4fxO7D6-2" vertex="1">
          <mxGeometry x="590" width="230" height="67" as="geometry" />
        </mxCell>
        <mxCell id="GuJyYLBh6VIsT4fxO7D6-7" value="" style="shape=partialRectangle;collapsible=0;dropTarget=0;pointerEvents=0;fillColor=none;top=0;left=0;bottom=0;right=0;points=[[0,0.5],[1,0.5]];portConstraint=eastwest;" parent="GuJyYLBh6VIsT4fxO7D6-1" vertex="1">
          <mxGeometry y="67" width="820" height="323" as="geometry" />
        </mxCell>
        <mxCell id="GuJyYLBh6VIsT4fxO7D6-8" value="" style="shape=partialRectangle;html=1;whiteSpace=wrap;connectable=0;overflow=hidden;fillColor=none;top=0;left=0;bottom=0;right=0;" parent="GuJyYLBh6VIsT4fxO7D6-7" vertex="1">
          <mxGeometry width="220" height="323" as="geometry" />
        </mxCell>
        <mxCell id="GuJyYLBh6VIsT4fxO7D6-9" value="" style="shape=partialRectangle;html=1;whiteSpace=wrap;connectable=0;overflow=hidden;fillColor=none;top=0;left=0;bottom=0;right=0;" parent="GuJyYLBh6VIsT4fxO7D6-7" vertex="1">
          <mxGeometry x="220" width="220" height="323" as="geometry" />
        </mxCell>
        <mxCell id="GuJyYLBh6VIsT4fxO7D6-10" value="" style="shape=partialRectangle;html=1;whiteSpace=wrap;connectable=0;overflow=hidden;fillColor=none;top=0;left=0;bottom=0;right=0;" parent="GuJyYLBh6VIsT4fxO7D6-7" vertex="1">
          <mxGeometry x="440" width="150" height="323" as="geometry" />
        </mxCell>
        <mxCell id="GuJyYLBh6VIsT4fxO7D6-11" value="" style="shape=partialRectangle;html=1;whiteSpace=wrap;connectable=0;overflow=hidden;fillColor=none;top=0;left=0;bottom=0;right=0;" parent="GuJyYLBh6VIsT4fxO7D6-7" vertex="1">
          <mxGeometry x="590" width="230" height="323" as="geometry" />
        </mxCell>
        <mxCell id="GuJyYLBh6VIsT4fxO7D6-13" value="Describe non-obvious aspects of diagrams&lt;br&gt;(e.g. ROC)" style="shape=note;size=20;whiteSpace=wrap;html=1;strokeColor=#336600;fillColor=#CCFF99;" parent="1" vertex="1">
          <mxGeometry x="233" y="152" width="100" height="100" as="geometry" />
        </mxCell>
        <mxCell id="GuJyYLBh6VIsT4fxO7D6-14" value="Use a consistent colour scheme" style="shape=note;size=20;whiteSpace=wrap;html=1;strokeColor=#336600;fillColor=#CCFF99;" parent="1" vertex="1">
          <mxGeometry x="340" y="152" width="100" height="100" as="geometry" />
        </mxCell>
        <mxCell id="GuJyYLBh6VIsT4fxO7D6-16" value="Be mindful of features and how they relate to end goal" style="shape=note;size=20;whiteSpace=wrap;html=1;strokeColor=#336600;fillColor=#CCFF99;" parent="1" vertex="1">
          <mxGeometry x="610" y="152" width="100" height="100" as="geometry" />
        </mxCell>
        <mxCell id="GuJyYLBh6VIsT4fxO7D6-17" value="Don&#39;t undersell your work (e.g. saying &quot;this was done to make things easier&quot;)" style="shape=note;size=20;whiteSpace=wrap;html=1;strokeColor=#336600;fillColor=#FF9999;" parent="1" vertex="1">
          <mxGeometry x="120" y="365" width="100" height="100" as="geometry" />
        </mxCell>
        <mxCell id="GuJyYLBh6VIsT4fxO7D6-18" value="Consider your audience--non-technical vs data team" style="shape=note;size=20;whiteSpace=wrap;html=1;strokeColor=#336600;fillColor=#CCFF99;" parent="1" vertex="1">
          <mxGeometry x="16" y="152" width="100" height="100" as="geometry" />
        </mxCell>
        <mxCell id="GuJyYLBh6VIsT4fxO7D6-20" value="Check and impute missing data&lt;br&gt;&lt;font style=&quot;font-size: 10px&quot;&gt;(e.g. time series--Fourier transform; copy from corresponding time period in previous day)&lt;/font&gt;" style="shape=note;size=20;whiteSpace=wrap;html=1;strokeColor=#336600;fillColor=#CCFF99;" parent="1" vertex="1">
          <mxGeometry x="465" y="152" width="120" height="130" as="geometry" />
        </mxCell>
        <mxCell id="GuJyYLBh6VIsT4fxO7D6-21" value="If there&#39;s something on the slide, talk about it" style="shape=note;size=20;whiteSpace=wrap;html=1;strokeColor=#336600;fillColor=#CCFF99;" parent="1" vertex="1">
          <mxGeometry x="16" y="260" width="100" height="100" as="geometry" />
        </mxCell>
        <mxCell id="O0aXP7Esw-nWGF3sLE1j-1" value="Check that outcome classes are balanced (over/undersampling; anomaly detection)" style="shape=note;size=20;whiteSpace=wrap;html=1;strokeColor=#336600;fillColor=#CCFF99;" parent="1" vertex="1">
          <mxGeometry x="610" y="365" width="120" height="100" as="geometry" />
        </mxCell>
        <mxCell id="O0aXP7Esw-nWGF3sLE1j-2" value="State assumptions you make" style="shape=note;size=20;whiteSpace=wrap;html=1;strokeColor=#336600;fillColor=#CCFF99;" parent="1" vertex="1">
          <mxGeometry x="120" y="152" width="100" height="100" as="geometry" />
        </mxCell>
        <mxCell id="O0aXP7Esw-nWGF3sLE1j-3" value="Explain why models were chosen" style="shape=note;size=20;whiteSpace=wrap;html=1;strokeColor=#336600;fillColor=#CCFF99;" parent="1" vertex="1">
          <mxGeometry x="610" y="260" width="100" height="100" as="geometry" />
        </mxCell>
        <mxCell id="O0aXP7Esw-nWGF3sLE1j-4" value="Avoid switching speakers too often" style="shape=note;size=20;whiteSpace=wrap;html=1;strokeColor=#336600;fillColor=#FF9999;" parent="1" vertex="1">
          <mxGeometry x="16" y="365" width="100" height="100" as="geometry" />
        </mxCell>
        <mxCell id="O0aXP7Esw-nWGF3sLE1j-5" value="Be able to present any part of the presentation&amp;nbsp;" style="shape=note;size=20;whiteSpace=wrap;html=1;strokeColor=#336600;fillColor=#CCFF99;" parent="1" vertex="1">
          <mxGeometry x="120" y="260" width="100" height="100" as="geometry" />
        </mxCell>
        <mxCell id="O0aXP7Esw-nWGF3sLE1j-6" value="Try to relate model performance to business outcomes (if applicable)" style="shape=note;size=20;whiteSpace=wrap;html=1;strokeColor=#336600;fillColor=#CCFF99;" parent="1" vertex="1">
          <mxGeometry x="720" y="152" width="100" height="100" as="geometry" />
        </mxCell>
        <mxCell id="O0aXP7Esw-nWGF3sLE1j-7" value="Avoid diagrams with too much information" style="shape=note;size=20;whiteSpace=wrap;html=1;strokeColor=#336600;fillColor=#FF9999;" parent="1" vertex="1">
          <mxGeometry x="340" y="260" width="100" height="100" as="geometry" />
        </mxCell>
        <mxCell id="O0aXP7Esw-nWGF3sLE1j-8" value="Human-readable labels" style="shape=note;size=20;whiteSpace=wrap;html=1;strokeColor=#336600;fillColor=#CCFF99;" parent="1" vertex="1">
          <mxGeometry x="233" y="260" width="100" height="100" as="geometry" />
        </mxCell>
        <mxCell id="O0aXP7Esw-nWGF3sLE1j-9" value="Start with basic model, build your way up" style="shape=note;size=20;whiteSpace=wrap;html=1;strokeColor=#336600;fillColor=#CCFF99;" parent="1" vertex="1">
          <mxGeometry x="720" y="260" width="100" height="100" as="geometry" />
        </mxCell>
      </root>
    </mxGraphModel>
  </diagram>
</mxfile>
